<?xml version="1.0" encoding="iso-8859-1" ?>
<!-- Generator: Adobe Illustrator 17.1.0, SVG Export Plug-In . SVG Version: 6.00 Build 0)  -->
<!DOCTYPE svg PUBLIC "-//W3C//DTD SVG 1.1//EN" "http://www.w3.org/Graphics/SVG/1.1/DTD/svg11.dtd">
<svg version="1.1" id="Capa_1" xmlns="http://www.w3.org/2000/svg" xmlns:xlink="http://www.w3.org/1999/xlink" x="0px" y="0px" viewBox="0 0 190.326 190.326" style="enable-background:new 0 0 190.326 190.326;" xml:space="preserve">
	<path fill="#a35c8a55" d="M134.149,182.881H31.021C13.916,182.881,0,168.965,0,151.86s13.916-31.021,31.021-31.021c3.932,0,7.74,0.72,11.347,2.143
	c6.617-16.396,22.592-27.267,40.413-27.267c24.031,0,43.582,19.551,43.582,43.582c0,0.904-0.028,1.812-0.085,2.72
	c2.49-0.998,5.157-1.516,7.872-1.516c11.684,0,21.188,9.505,21.188,21.189S145.833,182.881,134.149,182.881z M31.021,124.84
	C16.121,124.84,4,136.961,4,151.86s12.121,27.021,27.021,27.021h103.129c9.478,0,17.188-7.711,17.188-17.189
	s-7.711-17.189-17.188-17.189c-3.257,0-6.43,0.919-9.176,2.657c-0.659,0.419-1.505,0.414-2.16-0.014
	c-0.656-0.427-1.003-1.197-0.888-1.97c0.29-1.944,0.437-3.921,0.437-5.876c0-21.826-17.757-39.582-39.582-39.582
	c-16.84,0-31.866,10.688-37.391,26.596c-0.187,0.538-0.593,0.97-1.118,1.189c-0.526,0.219-1.119,0.205-1.632-0.041
	C38.993,125.721,35.084,124.84,31.021,124.84z M169.819,84.186h-65.768c-7.851,0-14.238-6.387-14.238-14.237
	s6.387-14.238,14.238-14.238c1.451,0,2.882,0.22,4.249,0.648c-0.006-0.23-0.009-0.461-0.009-0.691
	c0-15.725,12.793-28.518,28.519-28.518c11.424,0,21.688,6.826,26.172,17.19c2.186-0.775,4.477-1.167,6.837-1.167
	c11.308,0,20.507,9.199,20.507,20.507S181.127,84.186,169.819,84.186z M104.052,59.711c-5.646,0-10.237,4.593-10.237,10.238
	s4.592,10.237,10.237,10.237h65.768c9.102,0,16.507-7.405,16.507-16.507s-7.405-16.507-16.507-16.507
	c-2.483,0-4.872,0.539-7.098,1.601c-0.515,0.245-1.105,0.259-1.632,0.041c-0.525-0.22-0.932-0.652-1.119-1.189
	c-3.422-9.854-12.729-16.474-23.16-16.474c-13.52,0-24.519,10.999-24.519,24.518c0,1.208,0.091,2.433,0.271,3.64
	c0.115,0.774-0.231,1.544-0.887,1.971c-0.656,0.428-1.501,0.433-2.161,0.014C107.88,60.258,105.991,59.711,104.052,59.711z
	 M63.127,42.212H24.975c-7.023,0-12.736-5.713-12.736-12.736c0-7.023,5.713-12.736,12.736-12.736c1.204,0,2.379,0.165,3.514,0.491
	c2.879-5.927,8.93-9.785,15.635-9.785c9.362,0,17.019,7.438,17.371,16.716c0.536-0.098,1.083-0.147,1.633-0.147
	c5.017,0,9.099,4.082,9.099,9.099S68.145,42.212,63.127,42.212z M24.975,20.74c-4.817,0-8.736,3.919-8.736,8.736
	c0,4.817,3.919,8.736,8.736,8.736h38.152c2.812,0,5.099-2.288,5.099-5.099s-2.288-5.099-5.099-5.099
	c-0.965,0-1.906,0.272-2.721,0.788c-0.661,0.419-1.505,0.414-2.161-0.014c-0.656-0.427-1.002-1.196-0.887-1.97
	c0.098-0.659,0.147-1.328,0.147-1.988c0-7.379-6.004-13.383-13.383-13.383c-5.694,0-10.774,3.614-12.643,8.993
	c-0.187,0.538-0.593,0.97-1.118,1.189c-0.525,0.219-1.119,0.204-1.632-0.041C27.553,21.025,26.29,20.74,24.975,20.74z" />
	<g></g>
	<g></g>
	<g></g>
	<g></g>
	<g></g>
	<g></g>
	<g></g>
	<g></g>
	<g></g>
	<g></g>
	<g></g>
	<g></g>
	<g></g>
	<g></g>
	<g></g>
</svg>